<?xml version="1.0" encoding="utf-8"?>
<!-- Generator: Adobe Illustrator 21.1.0, SVG Export Plug-In . SVG Version: 6.00 Build 0)  -->
<svg version="1.1" id="Layer_1" xmlns="http://www.w3.org/2000/svg" xmlns:xlink="http://www.w3.org/1999/xlink" x="0px" y="0px"
	 viewBox="0 0 750 750" style="enable-background:new 0 0 750 750;" xml:space="preserve">
<g>
	<g>
		<g>
			<path style="fill:#FFFFFF;" d="M375,666.5c-77.9,0-151.1-30.3-206.1-85.4C113.8,526.1,83.5,452.9,83.5,375s30.3-151.1,85.4-206.1
				S297.1,83.5,375,83.5s151.1,30.3,206.1,85.4c55.1,55.1,85.4,128.3,85.4,206.1s-30.3,151.1-85.4,206.1
				C526.1,636.2,452.9,666.5,375,666.5z M375,124.5c-138.1,0-250.5,112.4-250.5,250.5S236.9,625.5,375,625.5S625.5,513.1,625.5,375
				S513.1,124.5,375,124.5z"/>
		</g>
		<g>
			<g>
				<path style="fill:#FF0000;" d="M375,375l0.7-272c-0.2,0-0.5,0-0.7,0c-75.2,0-143.3,30.6-192.6,79.9L375,375z"/>
			</g>
			<g>
				<path style="fill:#FF00FF;" d="M183,182.3c-49.4,49.3-80,117.4-80,192.7c0,0.2,0,0.3,0,0.5l272-0.5L183,182.3z"/>
			</g>
			<g>
				<path style="fill:#9900FF;" d="M103,374.5c0,0.2,0,0.3,0,0.5c0,75.3,30.6,143.4,80,192.7L375,375L103,374.5z"/>
			</g>
			<g>
				<path style="fill:#0000FF;" d="M375,375L182.4,567.1C231.7,616.4,299.8,647,375,647c0.2,0,0.5,0,0.7,0L375,375z"/>
			</g>
			<g>
				<path style="fill:#00FFFF;" d="M375,375l-0.3,272c0.1,0,0.2,0,0.3,0c75.3,0,143.5-30.6,192.8-80.1L375,375z"/>
			</g>
			<g>
				<path style="fill:#00FF00;" d="M567,567.7c49.4-49.3,80-117.4,80-192.7c0-0.2,0-0.3,0-0.5L375,375L567,567.7z"/>
			</g>
			<g>
				<path style="fill:#FFFF00;" d="M647,375.5c0-0.2,0-0.3,0-0.5c0-75.3-30.6-143.4-80-192.7L375,375L647,375.5z"/>
			</g>
			<g>
				<path style="fill:#FF6600;" d="M375,375l192.6-192.1C518.3,133.6,450.2,103,375,103c-0.1,0-0.2,0-0.3,0L375,375z"/>
			</g>
		</g>
	</g>
</g>
</svg>
