<?xml version="1.0" encoding="utf-8"?>
<!-- Generator: Adobe Illustrator 21.1.0, SVG Export Plug-In . SVG Version: 6.00 Build 0)  -->
<svg version="1.1" id="Layer_1" xmlns="http://www.w3.org/2000/svg" xmlns:xlink="http://www.w3.org/1999/xlink" x="0px" y="0px"
	 viewBox="0 0 750 750" style="enable-background:new 0 0 750 750;" xml:space="preserve">
<path style="fill:#FFFFFF;" d="M495.6,426.8v11.9c0,1.7-0.5,3-1.5,4s-2.6,1.5-4.7,1.5h-53V537h-19.2v-92.8h-153
	c-2.3,0-4-0.5-5.3-1.5c-1.2-1-2.1-2.3-2.5-4l-2.1-10.7l162.6-215h19.4v213.7L495.6,426.8L495.6,426.8z M417.2,426.8V257.4
	c0-2.6,0.1-5.4,0.3-8.5c0.2-3,0.5-6.2,0.8-9.4L278.4,426.8H417.2z"/>
</svg>
