<?xml version="1.0" encoding="utf-8"?>
<!-- Generator: Adobe Illustrator 21.1.0, SVG Export Plug-In . SVG Version: 6.00 Build 0)  -->
<svg version="1.1" id="Layer_1" xmlns="http://www.w3.org/2000/svg" xmlns:xlink="http://www.w3.org/1999/xlink" x="0px" y="0px"
	 viewBox="0 0 750 750" style="enable-background:new 0 0 750 750;" xml:space="preserve">
<path style="fill:#FFFFFF;" d="M315.3,339.5c10.2-2.6,19.8-4.5,28.9-5.6s17.7-1.7,25.9-1.7c16.9,0,31.8,2.4,44.6,7.2
	c12.8,4.8,23.5,11.5,32.1,20.1s15.1,18.9,19.4,30.7c4.3,11.9,6.5,24.8,6.5,38.9c0,17.1-2.9,32.3-8.8,45.8s-13.9,25-24.1,34.4
	c-10.2,9.5-22.1,16.7-35.7,21.7s-28,7.5-43.2,7.5c-8.8,0-17.3-0.8-25.5-2.4c-8.2-1.6-15.8-3.7-22.9-6.4s-13.6-5.8-19.7-9.3
	c-6-3.5-11.3-7.1-15.9-10.7l6.6-8.9c1.4-2.3,3.5-3.4,6.4-3.4c2,0,4.8,1.1,8.6,3.4c3.7,2.3,8.5,4.8,14.4,7.5s12.8,5.3,20.9,7.5
	c8.1,2.3,17.4,3.4,28.1,3.4c12.5,0,24.2-2,35-6.1c10.8-4,20.2-9.9,28.1-17.5s14.1-17,18.6-28.2s6.7-23.9,6.7-38.1
	c0-11.6-1.7-22.2-5.1-32s-8.6-18.1-15.5-25S414,360,403.4,356.1c-10.6-3.9-23.1-5.8-37.4-5.8c-8.7,0-17.9,0.7-27.7,2.1
	c-9.8,1.4-20.1,3.6-31.1,6.6l-13.9-4.3l25.1-143.3H464v9.4c0,3.1-1,5.6-3.1,7.7c-2.1,2.1-5.3,3.1-9.7,3.1h-117L315.3,339.5z"/>
</svg>
